# xmcd CD database file
#
# Track frame offsets:
#	150
#	16535
#	36585
#	59127
#	80980
#	102087
#
# Disc length: 1633 seconds
#
# Revision: 0
# Processed by: cddbd v1.5PL3 Copyright (c) Steve Scherf et al.
# Submitted via: CDex 1.51
#
DISCID=4c065f06
DTITLE=星野由妃 - DeMo...
DYEAR=1989
DGENRE=Pop
TTITLE0=Do You Wanna Dance
TTITLE1=恋人達の長い夜
TTITLE2=さよならの時
TTITLE3=波も涙も暖かい
TTITLE4=ためらい−恋する気持−
TTITLE5=微笑みにリグレット
EXTD=YEAR: 1989
EXTT0=
EXTT1=
EXTT2=
EXTT3=
EXTT4=
EXTT5=
PLAYORDER=
